<mxfile host="www.draw.io" modified="2020-02-18T10:15:27.291Z" agent="Mozilla/5.0 (X11; Fedora; Linux x86_64; rv:73.0) Gecko/20100101 Firefox/73.0" etag="QuVoV0oZISUMqQd7vhbY" version="12.7.1" type="github">
  <diagram name="Page-1" id="7e0a89b8-554c-2b80-1dc8-d5c74ca68de4">
    <mxGraphModel dx="981" dy="532" grid="1" gridSize="10" guides="1" tooltips="1" connect="1" arrows="1" fold="1" page="1" pageScale="1" pageWidth="1100" pageHeight="850" background="#ffffff" math="0" shadow="0">
      <root>
        <mxCell id="0" />
        <mxCell id="1" parent="0" />
        <mxCell id="zF1yohjajByQZwbTASdC-9" value="" style="pointerEvents=1;verticalLabelPosition=bottom;shadow=0;dashed=0;align=center;html=1;verticalAlign=top;shape=mxgraph.electrical.electro-mechanical.2-way_switch;rotation=90;" vertex="1" parent="1">
          <mxGeometry x="655" y="582" width="75" height="26" as="geometry" />
        </mxCell>
        <mxCell id="zF1yohjajByQZwbTASdC-10" value="" style="pointerEvents=1;verticalLabelPosition=bottom;shadow=0;dashed=0;align=center;html=1;verticalAlign=top;shape=mxgraph.electrical.electro-mechanical.2-way_switch;rotation=90;" vertex="1" parent="1">
          <mxGeometry x="580" y="582" width="75" height="26" as="geometry" />
        </mxCell>
        <mxCell id="zF1yohjajByQZwbTASdC-11" value="" style="pointerEvents=1;verticalLabelPosition=bottom;shadow=0;dashed=0;align=center;html=1;verticalAlign=top;shape=mxgraph.electrical.electro-mechanical.2-way_switch;rotation=90;" vertex="1" parent="1">
          <mxGeometry x="495" y="582" width="75" height="26" as="geometry" />
        </mxCell>
        <mxCell id="zF1yohjajByQZwbTASdC-12" value="" style="pointerEvents=1;verticalLabelPosition=bottom;shadow=0;dashed=0;align=center;html=1;verticalAlign=top;shape=mxgraph.electrical.electro-mechanical.2-way_switch;rotation=90;" vertex="1" parent="1">
          <mxGeometry x="420" y="582" width="75" height="26" as="geometry" />
        </mxCell>
        <mxCell id="zF1yohjajByQZwbTASdC-13" value="" style="pointerEvents=1;verticalLabelPosition=bottom;shadow=0;dashed=0;align=center;html=1;verticalAlign=top;shape=mxgraph.electrical.electro-mechanical.2-way_switch;rotation=90;" vertex="1" parent="1">
          <mxGeometry x="335" y="586" width="75" height="26" as="geometry" />
        </mxCell>
        <mxCell id="zF1yohjajByQZwbTASdC-14" value="" style="pointerEvents=1;verticalLabelPosition=bottom;shadow=0;dashed=0;align=center;html=1;verticalAlign=top;shape=mxgraph.electrical.electro-mechanical.2-way_switch;rotation=90;" vertex="1" parent="1">
          <mxGeometry x="260" y="587" width="75" height="26" as="geometry" />
        </mxCell>
        <mxCell id="zF1yohjajByQZwbTASdC-15" value="" style="pointerEvents=1;verticalLabelPosition=bottom;shadow=0;dashed=0;align=center;html=1;verticalAlign=top;shape=mxgraph.electrical.electro-mechanical.2-way_switch;rotation=90;" vertex="1" parent="1">
          <mxGeometry x="170" y="586" width="75" height="26" as="geometry" />
        </mxCell>
        <mxCell id="zF1yohjajByQZwbTASdC-16" value="" style="pointerEvents=1;verticalLabelPosition=bottom;shadow=0;dashed=0;align=center;html=1;verticalAlign=top;shape=mxgraph.electrical.electro-mechanical.2-way_switch;rotation=90;" vertex="1" parent="1">
          <mxGeometry x="95" y="587" width="75" height="26" as="geometry" />
        </mxCell>
        <mxCell id="zF1yohjajByQZwbTASdC-17" value="" style="verticalLabelPosition=bottom;shadow=0;dashed=0;align=center;html=1;verticalAlign=top;shape=mxgraph.electrical.opto_electronics.7_segment_display;pointerEvents=1;" vertex="1" parent="1">
          <mxGeometry x="330.6" y="280" width="74.7" height="96.1" as="geometry" />
        </mxCell>
        <mxCell id="zF1yohjajByQZwbTASdC-18" value="" style="verticalLabelPosition=bottom;shadow=0;dashed=0;align=center;html=1;verticalAlign=top;shape=mxgraph.electrical.opto_electronics.7_segment_display;pointerEvents=1;" vertex="1" parent="1">
          <mxGeometry x="405.3" y="280" width="74.7" height="96.1" as="geometry" />
        </mxCell>
        <mxCell id="zF1yohjajByQZwbTASdC-19" value="" style="verticalLabelPosition=bottom;shadow=0;dashed=0;align=center;html=1;verticalAlign=top;shape=mxgraph.electrical.opto_electronics.7_segment_display;pointerEvents=1;" vertex="1" parent="1">
          <mxGeometry x="480" y="280" width="74.7" height="96.1" as="geometry" />
        </mxCell>
        <mxCell id="zF1yohjajByQZwbTASdC-20" value="" style="verticalLabelPosition=bottom;shadow=0;dashed=0;align=center;html=1;verticalAlign=top;shape=mxgraph.electrical.opto_electronics.7_segment_display;pointerEvents=1;" vertex="1" parent="1">
          <mxGeometry x="554.7" y="280" width="74.7" height="96.1" as="geometry" />
        </mxCell>
      </root>
    </mxGraphModel>
  </diagram>
</mxfile>
